<mxfile host="app.diagrams.net" modified="2023-08-07T03:40:23.019Z" agent="Mozilla/5.0 (Windows NT 10.0; Win64; x64) AppleWebKit/537.36 (KHTML, like Gecko) Chrome/115.0.0.0 Safari/537.36" version="21.6.3" etag="vLZTNgajwedIeXvxzg_Q" type="github">
  <diagram name="第 1 页" id="S5JzSjpfM-Ko2oALQSnp">
    <mxGraphModel>
      <root>
        <mxCell id="0" />
        <mxCell id="1" parent="0" />
      </root>
    </mxGraphModel>
  </diagram>
</mxfile>
